<?xml version="1.0" standalone="no"?>
<!DOCTYPE svg PUBLIC "-//W3C//DTD SVG 20010904//EN"
 "http://www.w3.org/TR/2001/REC-SVG-20010904/DTD/svg10.dtd">
<svg version="1.0" xmlns="http://www.w3.org/2000/svg"
 width="200.000000pt" height="200.000000pt" viewBox="0 0 200.000000 200.000000"
 preserveAspectRatio="xMidYMid meet">
<metadata>
Created by potrace 1.11, written by Peter Selinger 2001-2013
</metadata>
<g transform="translate(0.000000,200.000000) scale(0.100000,-0.100000)"
fill="#000000" stroke="none">
<path d="M1600 1810 c0 -25 -4 -30 -25 -30 -39 0 -75 -42 -75 -87 0 -21 4 -43
8 -49 14 -22 49 -32 90 -27 l42 6 0 108 c0 102 -1 109 -20 109 -16 0 -20 -7
-20 -30z m-2 -113 c3 -45 2 -47 -23 -47 -37 0 -54 40 -31 75 27 41 50 29 54
-28z"/>
<path d="M280 1725 c0 -98 1 -105 20 -105 17 0 20 7 20 40 0 26 4 40 13 40 7
0 23 -18 36 -40 14 -25 29 -40 42 -40 24 0 24 2 -6 51 -23 35 -24 41 -11 54
25 25 29 54 12 80 -14 22 -24 25 -71 25 l-55 0 0 -105z m89 61 c17 -20 3 -46
-25 -46 -20 0 -24 5 -24 30 0 23 5 30 19 30 10 0 24 -6 30 -14z"/>
<path d="M980 1803 c51 -163 63 -194 72 -185 5 5 17 35 27 67 20 64 21 63 45
-12 10 -29 22 -55 26 -58 5 -3 23 41 41 97 17 57 34 107 36 111 3 5 -5 7 -18
5 -18 -2 -26 -13 -36 -48 -22 -77 -24 -78 -44 -12 -11 34 -24 62 -29 62 -4 0
-16 -24 -26 -52 -24 -77 -25 -77 -46 -9 -14 47 -23 61 -38 61 -16 0 -18 -4
-10 -27z"/>
<path d="M430 1773 c0 -4 13 -42 29 -83 30 -75 28 -100 -5 -100 -8 0 -14 -7
-14 -15 0 -17 23 -20 50 -5 10 5 31 46 49 95 35 96 37 115 17 115 -8 0 -22
-23 -33 -57 l-19 -56 -21 54 c-11 31 -27 55 -37 57 -9 2 -16 0 -16 -5z"/>
<path d="M601 1771 c-22 -14 -3 -31 31 -28 18 1 33 -3 35 -10 3 -8 -5 -13 -21
-13 -29 0 -66 -31 -66 -55 0 -26 40 -58 63 -50 30 9 39 9 61 0 17 -7 18 -5 13
16 -4 13 -7 43 -7 67 0 29 -6 48 -20 62 -21 21 -65 26 -89 11z m69 -100 c0
-22 -29 -36 -43 -22 -15 15 0 41 23 41 13 0 20 -7 20 -19z"/>
<path d="M747 1773 c-4 -3 -7 -39 -7 -80 0 -66 2 -73 20 -73 18 0 20 7 20 60
0 45 4 62 15 66 28 11 45 -16 45 -72 0 -41 4 -54 15 -54 22 0 21 122 -1 144
-18 19 -55 21 -72 4 -9 -9 -12 -9 -12 0 0 13 -13 16 -23 5z"/>
<path d="M1251 1771 c-22 -14 -3 -31 31 -28 18 1 33 -3 35 -10 3 -8 -5 -13
-21 -13 -30 0 -66 -32 -66 -58 0 -11 9 -27 21 -37 16 -16 25 -17 48 -8 18 7
34 7 45 1 10 -6 19 -8 21 -6 2 1 0 34 -4 72 -5 50 -12 72 -26 82 -21 16 -63
18 -84 5z m69 -100 c0 -22 -29 -36 -43 -22 -15 15 0 41 23 41 13 0 20 -7 20
-19z"/>
<path d="M1395 1772 c-3 -3 -5 -38 -5 -79 0 -66 2 -73 20 -73 17 0 20 7 20 53
0 55 12 77 42 77 10 0 18 6 18 14 0 10 -13 14 -45 14 -25 -1 -47 -3 -50 -6z"/>
<path d="M895 1551 c-11 -5 -43 -6 -72 -3 -71 7 -100 -3 -123 -41 -29 -47 -26
-93 9 -128 16 -16 36 -29 44 -29 22 0 31 -99 12 -138 -18 -35 -8 -75 25 -92
15 -8 20 -21 20 -53 0 -24 -6 -50 -12 -58 -7 -9 -42 -24 -78 -33 -99 -27 -128
-44 -158 -94 -23 -40 -27 -60 -30 -142 -6 -148 38 -275 111 -321 43 -27 122
-21 207 16 81 35 99 35 180 0 143 -62 219 -42 277 75 92 185 45 434 -85 443
-37 3 -39 -24 -3 -45 16 -9 40 -36 52 -60 45 -87 15 -294 -52 -361 -28 -27
-34 -29 -83 -24 -57 6 -144 44 -130 56 111 93 113 94 153 82 57 -17 58 -14 17
28 -20 21 -43 56 -51 77 l-13 39 -13 -27 c-10 -24 -29 -38 -29 -23 0 2 29 72
64 155 40 94 75 162 94 182 53 53 51 128 -3 128 -37 0 -65 -44 -65 -101 0 -67
-5 -76 -41 -71 -56 8 -67 92 -19 140 33 34 37 57 16 88 -22 31 -10 134 15 134
26 0 69 57 69 91 0 38 -24 85 -51 99 -11 6 -48 10 -82 9 -34 -1 -82 1 -107 4
-25 4 -54 3 -65 -2z m149 -43 c65 3 96 -17 96 -62 0 -45 -22 -61 -82 -59 l-50
1 21 -22 c12 -12 21 -35 21 -51 0 -27 -1 -28 -46 -21 -26 3 -56 6 -68 6 -13 0
-28 11 -38 28 l-17 27 -1 -30 -1 -30 -14 30 -13 30 -1 -32 c-1 -39 -21 -45
-21 -6 0 15 9 37 21 49 l21 22 -50 -1 c-60 -2 -82 14 -82 59 0 45 35 69 88 61
21 -4 51 -2 67 3 17 5 46 6 65 2 19 -3 57 -5 84 -4z m-15 -267 c20 -13 9 -130
-16 -173 -36 -61 -116 -59 -149 4 -9 18 -19 63 -22 99 -4 59 -2 68 14 72 34 8
159 7 173 -2z m164 -171 c3 -11 1 -20 -4 -20 -5 0 -9 9 -9 20 0 11 2 20 4 20
2 0 6 -9 9 -20z m-275 -100 c-2 -8 -28 -22 -58 -31 -42 -13 -55 -21 -53 -35 0
-11 6 -59 13 -108 6 -48 9 -91 6 -94 -3 -3 -15 7 -27 21 -27 35 -39 34 -39 -3
0 -23 -12 -44 -46 -80 -47 -51 -47 -58 1 -40 85 32 315 47 315 21 0 -12 -121
-97 -179 -126 -30 -15 -78 -29 -107 -32 -49 -5 -55 -3 -83 24 -59 59 -91 258
-56 348 21 58 55 81 146 101 94 21 103 25 107 57 3 25 3 25 33 9 16 -9 28 -24
27 -32z m109 10 c8 -21 18 -30 35 -30 12 0 33 -3 44 -6 21 -6 20 -10 -31 -122
-32 -70 -60 -119 -71 -123 -11 -4 -43 -8 -71 -8 -39 -1 -53 3 -53 13 0 8 -3
21 -6 29 -4 11 1 13 20 10 21 -4 26 -1 26 16 0 14 -6 21 -20 21 -11 0 -20 -6
-21 -12 -1 -23 -18 27 -18 56 -1 20 3 27 13 23 21 -8 43 20 27 36 -9 9 -16 9
-31 -1 -16 -10 -20 -10 -20 2 0 9 21 21 54 30 44 13 55 21 61 43 6 23 30 52
45 53 3 0 11 -13 17 -30z"/>
<path d="M864 1216 c-9 -24 0 -51 19 -54 15 -3 18 2 15 29 -3 35 -24 51 -34
25z"/>
<path d="M984 1216 c-9 -23 0 -51 16 -51 10 0 15 10 15 29 0 32 -21 47 -31 22z"/>
<path d="M910 1140 c0 -5 14 -10 30 -10 17 0 30 5 30 10 0 6 -13 10 -30 10
-16 0 -30 -4 -30 -10z"/>
<path d="M867 1133 c-10 -9 23 -43 42 -44 10 0 12 -2 3 -6 -20 -8 -3 -23 28
-23 31 0 48 15 28 23 -9 4 -7 6 3 6 23 1 53 37 39 46 -7 4 -15 3 -19 -2 -15
-24 -110 -26 -95 -2 6 10 -19 12 -29 2z"/>
<path d="M940 255 c0 -50 4 -85 10 -85 6 0 10 9 10 19 0 31 16 33 34 6 9 -14
23 -25 32 -25 13 0 12 6 -6 35 -21 33 -21 37 -6 54 33 36 6 44 -31 9 l-23 -21
0 46 c0 26 -4 47 -10 47 -6 0 -10 -35 -10 -85z"/>
<path d="M1750 316 c0 -19 -6 -25 -27 -28 -53 -6 -71 -93 -24 -118 11 -5 33
-7 51 -4 l31 7 -3 80 c-2 53 -7 82 -15 85 -8 2 -13 -6 -13 -22z m0 -92 c0 -31
-3 -35 -22 -32 -39 5 -37 68 2 68 16 0 20 -6 20 -36z"/>
<path d="M0 250 c0 -64 3 -80 15 -80 10 0 15 10 15 34 0 30 4 35 25 38 33 4
33 22 0 26 -40 5 -31 32 10 32 24 0 35 5 35 15 0 11 -12 15 -50 15 l-50 0 0
-80z"/>
<path d="M594 322 c-40 -26 -45 -102 -9 -137 26 -27 46 -31 76 -15 29 16 24
33 -7 26 -32 -8 -64 16 -64 48 0 36 28 67 57 64 14 -2 28 3 30 10 5 13 -64 17
-83 4z"/>
<path d="M1100 315 c0 -9 9 -15 25 -15 24 0 25 -2 25 -65 0 -51 3 -65 15 -65
12 0 15 14 15 65 0 63 1 65 25 65 16 0 25 6 25 15 0 12 -14 15 -65 15 -51 0
-65 -3 -65 -15z"/>
<path d="M1454 322 c-40 -26 -45 -102 -9 -137 26 -27 46 -31 76 -15 29 16 23
33 -10 25 -36 -8 -61 15 -61 55 0 38 26 63 56 56 17 -5 24 -2 24 9 0 16 -55
21 -76 7z"/>
<path d="M120 228 c0 -70 23 -78 28 -11 2 31 8 42 23 46 32 9 21 26 -16 25
l-35 -1 0 -59z"/>
<path d="M204 265 c-38 -57 27 -134 76 -90 23 20 28 83 8 103 -21 21 -66 14
-84 -13z m64 -37 c-2 -25 -8 -33 -23 -33 -20 0 -31 25 -21 51 3 8 15 14 26 14
18 0 21 -5 18 -32z"/>
<path d="M320 229 c0 -46 3 -59 15 -59 11 0 15 12 15 45 0 33 4 45 15 45 11 0
15 -12 15 -45 0 -33 4 -45 14 -45 10 0 16 14 18 42 2 31 8 44 21 46 14 3 17
-4 17 -42 0 -34 4 -46 15 -46 19 0 21 93 3 108 -7 5 -43 10 -80 9 l-68 0 0
-58z"/>
<path d="M706 268 c-22 -31 -20 -64 4 -88 24 -24 38 -25 68 -4 25 17 31 81 10
102 -20 20 -65 14 -82 -10z m62 -40 c-2 -25 -8 -33 -23 -33 -20 0 -31 25 -21
51 3 8 15 14 26 14 18 0 21 -5 18 -32z"/>
<path d="M827 272 c-23 -25 -21 -68 3 -92 24 -24 38 -25 68 -4 26 18 30 74 6
98 -21 21 -57 20 -77 -2z m61 -44 c-2 -25 -8 -33 -23 -33 -20 0 -31 25 -21 51
3 8 15 14 26 14 18 0 21 -5 18 -32z"/>
<path d="M1252 277 c-24 -29 -24 -64 1 -93 22 -25 28 -27 53 -19 63 22 50 125
-15 125 -16 0 -33 -6 -39 -13z m61 -31 c9 -24 -4 -56 -23 -56 -21 0 -33 25
-25 51 7 22 40 25 48 5z"/>
<path d="M1567 272 c-23 -25 -21 -68 3 -92 24 -24 38 -25 68 -4 26 18 30 74 6
98 -21 21 -57 20 -77 -2z m61 -44 c-2 -25 -8 -33 -23 -33 -20 0 -31 25 -21 51
3 8 15 14 26 14 18 0 21 -5 18 -32z"/>
<path d="M1806 268 c-22 -31 -20 -64 4 -88 28 -28 80 -24 80 6 0 10 -8 12 -29
8 -20 -4 -30 -2 -34 10 -5 13 1 16 33 16 46 0 53 8 37 41 -17 34 -69 38 -91 7z
m57 -15 c-7 -2 -19 -2 -25 0 -7 3 -2 5 12 5 14 0 19 -2 13 -5z"/>
<path d="M1920 229 c0 -46 3 -59 15 -59 11 0 15 12 15 44 0 38 3 45 22 48 41
6 32 27 -11 26 l-41 0 0 -59z"/>
</g>
</svg>
