<?xml version="1.0" standalone="no"?>
<!DOCTYPE svg PUBLIC "-//W3C//DTD SVG 20010904//EN"
 "http://www.w3.org/TR/2001/REC-SVG-20010904/DTD/svg10.dtd">
<svg version="1.0" xmlns="http://www.w3.org/2000/svg"
 width="200.000000pt" height="200.000000pt" viewBox="0 0 200.000000 200.000000"
 preserveAspectRatio="xMidYMid meet">
<metadata>
Created by potrace 1.11, written by Peter Selinger 2001-2013
</metadata>
<g transform="translate(0.000000,200.000000) scale(0.100000,-0.100000)"
fill="#000000" stroke="none">
<path d="M280 1725 c0 -87 3 -105 15 -105 11 0 15 12 15 45 0 60 25 60 62 0
15 -25 35 -45 44 -45 17 0 15 5 -32 74 -12 17 -11 21 6 33 28 19 26 68 -2 87
-12 9 -42 16 -65 16 l-43 0 0 -105z m98 48 c2 -14 -4 -26 -18 -33 -31 -17 -50
-5 -50 30 0 29 2 31 33 28 24 -2 33 -8 35 -25z"/>
<path d="M980 1824 c0 -21 63 -203 69 -200 4 3 16 32 26 66 10 33 22 57 25 53
4 -4 15 -30 25 -58 10 -27 21 -54 25 -58 6 -6 70 175 70 197 0 3 -6 6 -14 6
-8 0 -21 -26 -32 -65 -10 -36 -22 -65 -25 -65 -4 0 -15 29 -24 65 -10 36 -21
65 -25 65 -4 0 -16 -29 -25 -65 -10 -36 -21 -65 -25 -65 -4 0 -16 29 -25 65
-11 39 -23 65 -31 65 -8 0 -14 -3 -14 -6z"/>
<path d="M1610 1800 c0 -27 -3 -30 -32 -30 -39 0 -51 -7 -67 -37 -15 -30 -14
-64 5 -91 13 -18 24 -22 65 -21 l49 2 0 104 c0 62 -4 103 -10 103 -5 0 -10
-13 -10 -30z m-5 -105 c0 -45 -2 -50 -23 -53 -30 -5 -52 14 -52 45 0 41 18 65
48 61 25 -3 27 -6 27 -53z"/>
<path d="M440 1760 c0 -5 12 -39 26 -75 27 -66 26 -95 -1 -95 -8 0 -15 -7 -15
-15 0 -8 4 -15 9 -15 24 0 53 43 81 119 35 99 34 91 17 91 -7 0 -22 -26 -32
-57 l-18 -58 -15 35 c-8 19 -18 45 -23 58 -8 22 -29 31 -29 12z"/>
<path d="M600 1756 c0 -11 9 -13 34 -9 25 4 35 1 39 -11 5 -12 0 -16 -16 -16
-33 0 -67 -28 -67 -54 0 -34 19 -45 77 -44 46 1 51 3 42 19 -5 10 -9 36 -9 58
0 63 -7 71 -56 71 -32 0 -44 -4 -44 -14z m76 -71 c8 -21 -15 -47 -39 -43 -27
4 -32 22 -12 42 21 20 44 21 51 1z"/>
<path d="M750 1693 c0 -86 18 -99 22 -17 3 60 20 83 52 71 12 -5 16 -20 16
-67 0 -47 3 -60 15 -60 12 0 15 13 15 56 0 81 -10 95 -70 93 l-50 -2 0 -74z"/>
<path d="M1250 1757 c0 -9 11 -12 34 -9 24 3 35 -1 39 -12 5 -12 0 -16 -19
-16 -34 0 -74 -41 -67 -69 6 -23 25 -29 90 -29 38 1 41 3 33 19 -6 10 -10 37
-10 61 0 24 -5 49 -12 56 -17 17 -88 16 -88 -1z m76 -72 c8 -20 -13 -45 -38
-45 -27 0 -35 30 -13 46 25 18 44 18 51 -1z"/>
<path d="M1400 1694 c0 -58 3 -74 15 -74 10 0 15 16 17 62 3 54 6 63 23 66 42
8 37 21 -8 20 l-47 -1 0 -73z"/>
<path d="M718 1520 c-15 -15 -30 -39 -33 -53 -10 -37 22 -97 56 -109 22 -8 30
-18 34 -46 4 -21 8 -47 10 -58 3 -12 -2 -27 -10 -34 -24 -20 -18 -61 14 -95
26 -27 29 -35 24 -81 l-5 -51 -72 -17 c-146 -34 -193 -87 -203 -228 -11 -160
59 -321 152 -344 34 -9 122 12 194 46 l62 30 50 -25 c66 -34 164 -58 203 -51
38 7 86 54 114 111 64 131 52 338 -24 407 -31 27 -76 41 -86 26 -12 -20 -10
-22 23 -37 22 -10 38 -29 55 -65 29 -61 31 -131 8 -225 -33 -135 -82 -181
-169 -161 -26 6 -64 19 -86 30 l-39 20 64 55 65 55 42 -15 41 -15 -36 40 c-19
22 -38 51 -42 65 -7 30 -20 32 -29 5 -3 -11 -13 -20 -21 -20 -8 0 -14 1 -14 3
0 2 29 72 65 156 39 93 78 168 100 193 38 45 47 96 20 118 -38 32 -87 -30 -84
-105 3 -57 -9 -71 -53 -59 -30 9 -34 14 -39 59 -6 46 -4 52 22 78 31 30 37 65
18 95 -8 12 -9 38 -5 75 6 49 10 57 36 65 62 22 76 114 24 163 -25 24 -29 24
-222 25 l-196 1 -28 -27z m339 -9 c59 0 93 -24 93 -66 0 -42 -35 -67 -85 -63
l-44 3 21 -22 c14 -16 18 -29 14 -50 -6 -28 -7 -28 -75 -25 -59 3 -70 7 -79
25 l-11 22 0 -22 c-1 -31 -15 -29 -28 5 l-11 27 -1 -32 c-1 -18 -5 -33 -10
-33 -5 0 -11 15 -14 33 -4 24 0 36 14 49 19 16 18 17 -27 20 -37 2 -51 9 -67
30 -17 23 -18 30 -7 57 14 35 32 43 94 40 25 -2 49 1 53 5 4 4 33 5 63 2 30
-3 78 -5 107 -5z m-54 -257 l37 -7 0 -63 c0 -106 -35 -164 -100 -164 -65 0
-100 58 -100 165 l0 64 33 4 c56 7 91 7 130 1z m-203 -92 c0 -15 -2 -15 -10
-2 -13 20 -13 33 0 25 6 -3 10 -14 10 -23z m291 -5 c-8 -8 -11 -7 -11 4 0 20
13 34 18 19 3 -7 -1 -17 -7 -23z m118 -38 c-6 -12 -9 -34 -7 -50 3 -18 0 -28
-6 -26 -18 6 -19 46 -2 73 20 30 31 32 15 3z m-279 -138 c-1 -17 -20 -30 -67
-45 -29 -10 -53 -24 -53 -31 0 -19 19 -165 25 -192 7 -32 -19 -30 -33 2 -15
33 -29 32 -37 -4 -3 -16 -24 -50 -46 -74 l-39 -45 63 20 c71 22 214 34 271 21
l38 -8 -79 -57 c-98 -71 -180 -109 -237 -111 -37 -2 -50 3 -76 28 -43 41 -74
146 -74 250 0 133 35 175 172 208 84 20 91 23 96 49 l5 28 36 -17 c19 -9 35
-19 35 -22z m100 4 c0 -21 6 -25 45 -31 25 -3 47 -10 50 -14 2 -4 -19 -61 -49
-126 l-53 -119 -74 0 -74 0 -12 75 c-21 133 -21 133 39 150 38 11 54 21 56 35
4 23 52 66 64 59 4 -3 8 -16 8 -29z"/>
<path d="M868 1208 c-7 -20 3 -49 16 -45 15 5 14 49 0 54 -7 2 -14 -2 -16 -9z"/>
<path d="M985 1210 c-8 -13 3 -50 15 -50 12 0 23 37 15 50 -3 5 -10 10 -15 10
-5 0 -12 -5 -15 -10z"/>
<path d="M920 1140 c0 -5 9 -10 20 -10 11 0 20 5 20 10 0 6 -9 10 -20 10 -11
0 -20 -4 -20 -10z"/>
<path d="M872 1133 c-22 -8 34 -43 68 -43 37 0 89 34 66 43 -8 3 -17 -1 -20
-9 -7 -18 -82 -19 -93 0 -4 7 -14 11 -21 9z"/>
<path d="M915 1070 c3 -5 15 -10 25 -10 10 0 22 5 25 10 4 6 -7 10 -25 10 -18
0 -29 -4 -25 -10z"/>
<path d="M865 881 c-8 -15 3 -31 21 -31 9 0 14 7 12 17 -4 20 -24 28 -33 14z"/>
<path d="M887 774 c-14 -14 -7 -35 11 -32 9 2 17 10 17 17 0 16 -18 25 -28 15z"/>
<path d="M7 323 c-11 -10 -8 -153 2 -153 6 0 11 17 13 38 3 33 6 37 33 41 l30
4 -30 6 c-21 4 -30 12 -30 26 0 16 8 21 38 23 20 2 37 7 37 13 0 10 -83 13
-93 2z"/>
<path d="M597 318 c-38 -29 -42 -102 -7 -133 20 -18 87 -18 82 0 -2 6 -14 9
-28 7 -34 -5 -54 14 -54 50 0 46 17 68 50 68 17 0 30 5 30 10 0 14 -53 12 -73
-2z"/>
<path d="M940 250 c0 -47 4 -80 10 -80 6 0 10 9 10 19 0 22 22 41 27 24 2 -6
10 -19 18 -29 21 -30 28 -10 8 24 -15 26 -16 35 -5 52 20 33 14 35 -18 5 l-30
-29 0 47 c0 26 -4 47 -10 47 -6 0 -10 -33 -10 -80z"/>
<path d="M1105 320 c-4 -6 5 -10 19 -10 25 0 26 -2 26 -70 0 -56 3 -70 15 -70
12 0 15 14 15 70 0 68 1 70 25 70 14 0 25 5 25 10 0 6 -26 10 -59 10 -33 0
-63 -4 -66 -10z"/>
<path d="M1449 311 c-30 -24 -33 -89 -5 -120 20 -22 61 -27 86 -11 16 10 8 13
-28 10 -34 -2 -52 18 -52 59 0 44 14 61 52 61 15 0 28 5 28 10 0 17 -57 11
-81 -9z"/>
<path d="M1750 307 c0 -18 -5 -23 -21 -23 -12 1 -30 -11 -42 -27 -20 -26 -20
-30 -6 -55 11 -21 24 -28 52 -30 l37 -3 0 80 c0 47 -4 81 -10 81 -5 0 -10 -10
-10 -23z m0 -78 c0 -36 -2 -40 -22 -37 -40 5 -37 78 2 78 17 0 20 -6 20 -41z"/>
<path d="M143 283 c-21 -4 -23 -10 -23 -59 0 -30 5 -54 10 -54 6 0 10 15 10
34 0 47 9 66 31 66 10 0 19 5 19 10 0 10 -8 11 -47 3z"/>
<path d="M216 274 c-19 -18 -21 -75 -4 -92 19 -19 66 -15 78 7 15 30 12 66 -8
84 -23 21 -46 22 -66 1z m58 -20 c11 -29 6 -53 -12 -63 -13 -7 -23 -6 -30 1
-13 13 -16 60 -5 71 12 13 41 7 47 -9z"/>
<path d="M343 282 c-21 -3 -23 -9 -23 -58 0 -66 18 -72 22 -6 3 39 6 47 23 47
17 0 20 -8 23 -47 2 -27 7 -48 12 -48 5 0 10 21 12 48 3 39 6 47 23 47 17 0
20 -8 23 -47 2 -27 7 -48 13 -48 12 0 12 80 0 99 -9 14 -80 22 -128 13z"/>
<path d="M716 274 c-19 -18 -21 -75 -4 -92 19 -19 66 -15 78 7 17 32 12 69
-12 85 -28 20 -43 20 -62 0z m52 -16 c16 -16 15 -44 -3 -62 -23 -23 -45 -9
-45 28 0 46 21 61 48 34z"/>
<path d="M839 280 c-44 -26 -24 -110 26 -110 51 0 73 62 35 100 -22 22 -37 24
-61 10z m51 -29 c14 -27 13 -37 -5 -55 -19 -19 -41 -11 -49 16 -11 46 33 78
54 39z"/>
<path d="M1257 272 c-20 -22 -22 -73 -5 -90 7 -7 24 -12 38 -12 35 0 50 17 50
56 0 57 -49 84 -83 46z m61 -37 c4 -35 -23 -62 -45 -44 -27 23 -11 82 21 77
15 -2 22 -11 24 -33z"/>
<path d="M1579 280 c-44 -26 -24 -110 26 -110 51 0 73 62 35 100 -22 22 -37
24 -61 10z m49 -22 c16 -16 15 -44 -3 -62 -30 -30 -61 6 -44 52 9 24 29 28 47
10z"/>
<path d="M1817 272 c-20 -22 -22 -73 -5 -90 14 -14 64 -16 73 -3 3 5 -9 11
-27 13 -22 2 -34 9 -36 21 -3 14 4 17 37 17 45 0 54 16 25 44 -21 21 -47 20
-67 -2z m61 -19 c2 -9 -7 -13 -27 -13 -30 0 -39 9 -24 24 11 10 46 3 51 -11z"/>
<path d="M1931 225 c1 -55 2 -57 8 -20 8 48 17 65 37 65 8 0 14 4 14 9 0 4
-13 8 -30 7 l-30 -1 1 -60z"/>
</g>
</svg>
